<svg width="768" height="214" viewBox="0 0 768 214" fill="none" xmlns="http://www.w3.org/2000/svg">
<path d="M29.6361 0C13.2685 0 0 13.2394 0 29.5709V44.3564C0 60.6879 13.2685 73.9273 29.6361 73.9273H186.292L191.859 64.88C196.471 57.3838 198.58 49.0703 198.429 40.8999C198.415 40.7268 198.401 40.554 198.386 40.3814C198.329 39.7443 198.259 39.1112 198.175 38.4822C195.295 16.7616 176.663 0 154.108 0H29.6361Z" fill="url(#paint0_linear_329_2)"/>
<path d="M110.385 56.503C108.683 61.9007 34.2707 161.37 34.2707 161.37C25.4779 175.585 30.1634 194.272 44.6173 202.635L57.3939 210.027C71.2225 218.027 88.8922 213.578 97.3045 199.978L191.875 65.0015C196.476 57.4913 198.58 49.1622 198.429 40.9765C196.856 20.5263 181.47 3.33951 161.606 0H68.6756C92.0043 0 111.126 18.0516 112.889 40.9763C112.985 46.1762 112.087 51.1054 110.385 56.503Z" fill="url(#paint1_linear_329_2)"/>
<path fill-rule="evenodd" clip-rule="evenodd" d="M68.2922 0C91.6701 0 110.832 18.0516 112.599 40.9763C112.695 46.1762 111.795 51.1054 110.089 56.503C109.751 57.5749 105.897 64.1751 99.9379 74.0658H186.186L191.709 65.069L191.751 65.0015C196.362 57.4913 198.47 49.1622 198.319 40.9765C198.305 40.8031 198.291 40.6299 198.276 40.457C198.24 40.0581 198.199 39.6608 198.154 39.265C198.126 39.0276 198.097 38.7907 198.065 38.5543C195.186 16.793 176.56 0 154.012 0H68.2922Z" fill="#02A5D8"/>
<path d="M273.272 61.1075C273.272 59.6854 273.694 58.6731 274.537 58.0706C275.381 57.4439 276.201 57.1306 276.996 57.1306H281.298C283.467 57.1306 285.118 58.3116 286.251 60.6737C287.384 63.0357 289.927 64.2167 293.88 64.2167L306.534 64.4698C310.776 64.4698 312.897 63.0839 312.897 60.3121C312.897 58.2152 310.306 56.5642 305.124 55.359C302.81 54.8047 300.255 54.2624 297.459 53.7321C294.663 53.1777 291.879 52.4908 289.107 51.6713C286.36 50.8518 283.829 49.8877 281.515 48.779C279.201 47.6703 277.321 46.1518 275.875 44.2236C274.453 42.2713 273.742 39.9816 273.742 37.3544C273.742 32.5098 275.465 28.7859 278.912 26.1828C282.359 23.5557 288.288 22.2421 296.7 22.2421L305.883 22.459C310.824 22.459 315.271 23.7364 319.224 26.2913C323.201 28.8221 325.189 31.9916 325.189 35.7998C325.189 37.2218 324.767 38.2462 323.924 38.8729C323.08 39.4995 322.273 39.8129 321.501 39.8129H317.199C315.03 39.8129 313.379 38.6318 312.246 36.2698C311.113 33.8836 308.57 32.6905 304.617 32.6905L293.735 32.4736C289.493 32.4736 287.372 33.8595 287.372 36.6313C287.372 38.1498 288.71 39.3911 291.385 40.3552C294.085 41.3193 297.338 42.1749 301.147 42.9221C304.979 43.6452 308.823 44.5249 312.68 45.5613C316.536 46.5977 319.802 48.309 322.477 50.6952C325.177 53.0572 326.527 56.0098 326.527 59.5529C326.527 64.3975 324.791 68.1334 321.321 70.7606C317.874 73.3637 311.957 74.6652 303.569 74.6652L292.614 74.4483C287.673 74.4483 283.214 73.1829 279.237 70.6521C275.261 68.0973 273.272 64.9157 273.272 61.1075ZM333.938 70.9052V25.8936C333.938 24.9536 334.276 24.1582 334.951 23.5075C335.625 22.8567 336.433 22.5313 337.373 22.5313H379.058C379.998 22.5313 380.794 22.8687 381.444 23.5436C382.119 24.2185 382.457 25.0259 382.457 25.9659V29.3644C382.457 30.3044 382.119 31.1118 381.444 31.7867C380.794 32.4375 379.998 32.7629 379.058 32.7629H347.568V43.2836H374.684C375.624 43.2836 376.419 43.6211 377.07 44.2959C377.745 44.9467 378.082 45.7421 378.082 46.6821V50.0806C378.082 51.0206 377.745 51.828 377.07 52.5029C376.419 53.1536 375.624 53.479 374.684 53.479H347.568V64.1444H378.986C379.902 64.1444 380.685 64.4698 381.336 65.1206C381.987 65.7714 382.312 66.5667 382.312 67.5067V70.9775C382.312 71.9175 381.975 72.7249 381.3 73.3998C380.625 74.0506 379.818 74.376 378.878 74.376H337.373C336.433 74.376 335.625 74.0506 334.951 73.3998C334.276 72.7249 333.938 71.8934 333.938 70.9052ZM384.915 25.5682C384.771 25.279 384.698 24.9657 384.698 24.6282C384.698 24.2667 384.915 23.8328 385.349 23.3267C385.807 22.7964 386.446 22.5313 387.265 22.5313H395.183C397.063 22.5313 398.497 23.6762 399.485 25.9659L413.477 57.1306L427.468 25.9659C428.457 23.7003 429.891 22.5554 431.771 22.5313H439.688C440.532 22.5313 441.171 22.7964 441.605 23.3267C442.038 23.8328 442.255 24.2667 442.255 24.6282C442.255 24.9657 442.195 25.279 442.075 25.5682L421.25 70.6883C420.117 73.1467 418.394 74.376 416.08 74.376H410.874C408.56 74.376 406.837 73.1467 405.704 70.6883L384.915 25.5682ZM448.185 70.9052V25.8936C448.185 24.9536 448.522 24.1582 449.197 23.5075C449.872 22.8567 450.679 22.5313 451.619 22.5313H493.305C494.245 22.5313 495.04 22.8687 495.691 23.5436C496.366 24.2185 496.703 25.0259 496.703 25.9659V29.3644C496.703 30.3044 496.366 31.1118 495.691 31.7867C495.04 32.4375 494.245 32.7629 493.305 32.7629H461.815V43.2836H488.93C489.87 43.2836 490.665 43.6211 491.316 44.2959C491.991 44.9467 492.328 45.7421 492.328 46.6821V50.0806C492.328 51.0206 491.991 51.828 491.316 52.5029C490.665 53.1536 489.87 53.479 488.93 53.479H461.815V64.1444H493.232C494.148 64.1444 494.932 64.4698 495.582 65.1206C496.233 65.7714 496.558 66.5667 496.558 67.5067V70.9775C496.558 71.9175 496.221 72.7249 495.546 73.3998C494.871 74.0506 494.064 74.376 493.124 74.376H451.619C450.679 74.376 449.872 74.0506 449.197 73.3998C448.522 72.7249 448.185 71.8934 448.185 70.9052ZM503.355 70.9775V25.9659C503.355 25.0259 503.681 24.2185 504.332 23.5436C504.982 22.8687 505.778 22.5313 506.718 22.5313H517.347C518.191 22.5313 519.082 22.8687 520.022 23.5436C520.962 24.2185 521.734 25.0259 522.336 25.9659L544.173 59.5529V25.8936C544.173 24.9536 544.498 24.1582 545.149 23.5075C545.824 22.8567 546.632 22.5313 547.572 22.5313H553.79C554.73 22.5313 555.525 22.8567 556.176 23.5075C556.851 24.1582 557.189 24.9777 557.189 25.9659V70.9775C557.189 71.9175 556.851 72.7249 556.176 73.3998C555.525 74.0506 554.73 74.376 553.79 74.376H541.787C540.847 74.376 539.883 74.0506 538.895 73.3998C537.906 72.7249 537.123 71.9175 536.545 70.9775L516.552 39.9575V70.9775C516.552 71.9175 516.214 72.7249 515.539 73.3998C514.888 74.0506 514.093 74.376 513.153 74.376H506.79C505.85 74.376 505.043 74.0506 504.368 73.3998C503.693 72.7249 503.355 71.9175 503.355 70.9775ZM273.272 136.108C273.272 134.685 273.694 133.673 274.537 133.071C275.381 132.444 276.201 132.131 276.996 132.131H281.298C283.467 132.131 285.118 133.312 286.251 135.674C287.384 138.036 289.927 139.217 293.88 139.217L306.534 139.47C310.776 139.47 312.897 138.084 312.897 135.312C312.897 133.215 310.306 131.564 305.124 130.359C302.81 129.805 300.255 129.262 297.459 128.732C294.663 128.178 291.879 127.491 289.107 126.671C286.36 125.852 283.829 124.888 281.515 123.779C279.201 122.67 277.321 121.152 275.875 119.224C274.453 117.271 273.742 114.982 273.742 112.354C273.742 107.51 275.465 103.786 278.912 101.183C282.359 98.5557 288.288 97.2421 296.7 97.2421L305.883 97.459C310.824 97.459 315.271 98.7364 319.224 101.291C323.201 103.822 325.189 106.992 325.189 110.8C325.189 112.222 324.767 113.246 323.924 113.873C323.08 114.5 322.273 114.813 321.501 114.813H317.199C315.03 114.813 313.379 113.632 312.246 111.27C311.113 108.884 308.57 107.691 304.617 107.691L293.735 107.474C289.493 107.474 287.372 108.86 287.372 111.631C287.372 113.15 288.71 114.391 291.385 115.355C294.085 116.319 297.338 117.175 301.147 117.922C304.979 118.645 308.823 119.525 312.68 120.561C316.536 121.598 319.802 123.309 322.477 125.695C325.177 128.057 326.527 131.01 326.527 134.553C326.527 139.398 324.791 143.133 321.321 145.761C317.874 148.364 311.957 149.665 303.569 149.665L292.614 149.448C287.673 149.448 283.214 148.183 279.237 145.652C275.261 143.097 273.272 139.916 273.272 136.108ZM328.407 104.364V100.966C328.407 99.9777 328.732 99.1582 329.383 98.5075C330.034 97.8567 330.853 97.5313 331.841 97.5313H377.721C378.709 97.5313 379.528 97.8567 380.179 98.5075C380.83 99.1582 381.155 99.9777 381.155 100.966V104.364C381.155 105.353 380.83 106.172 380.179 106.823C379.528 107.45 378.709 107.763 377.721 107.763H361.596V146.05C361.596 146.99 361.259 147.785 360.584 148.436C359.933 149.063 359.138 149.376 358.198 149.376H351.364C350.424 149.376 349.617 149.063 348.942 148.436C348.291 147.785 347.966 146.99 347.966 146.05V107.763H331.841C330.853 107.763 330.034 107.45 329.383 106.823C328.732 106.172 328.407 105.353 328.407 104.364ZM386.361 128.877V100.966C386.361 100.026 386.687 99.2185 387.338 98.5436C388.012 97.8687 388.844 97.5313 389.832 97.5313H396.593C397.509 97.5313 398.304 97.8687 398.979 98.5436C399.654 99.2185 399.991 100.026 399.991 100.966V128.949C399.991 132.492 400.763 135.131 402.305 136.867C403.872 138.602 406.282 139.47 409.536 139.47H415.321C418.575 139.47 420.973 138.602 422.515 136.867C424.082 135.131 424.865 132.492 424.865 128.949V100.966C424.865 100.026 425.191 99.2185 425.841 98.5436C426.516 97.8687 427.324 97.5313 428.264 97.5313H434.988C435.977 97.5313 436.808 97.8687 437.483 98.5436C438.158 99.2185 438.495 100.026 438.495 100.966V128.877C438.495 135.481 436.555 140.603 432.675 144.242C428.794 147.858 423.13 149.665 415.682 149.665H409.174C401.703 149.665 396.027 147.858 392.146 144.242C388.29 140.603 386.361 135.481 386.361 128.877ZM448.112 146.05V101.038C448.112 100.05 448.45 99.2185 449.125 98.5436C449.799 97.8687 450.607 97.5313 451.547 97.5313H471.757C482.217 97.5313 489.822 99.6282 494.57 103.822C499.342 107.992 501.728 114.548 501.728 123.49C501.728 132.408 499.342 138.952 494.57 143.121C489.822 147.291 482.217 149.376 471.757 149.376H451.547C450.607 149.376 449.799 149.063 449.125 148.436C448.45 147.785 448.112 146.99 448.112 146.05ZM461.742 139.144H471.359C477.843 139.144 482.254 137.963 484.592 135.601C486.929 133.239 488.098 129.202 488.098 123.49C488.098 117.753 486.929 113.704 484.592 111.342C482.254 108.956 477.843 107.763 471.359 107.763H461.742V139.144ZM509.14 146.05V100.966C509.14 100.026 509.477 99.2185 510.152 98.5436C510.827 97.8687 511.635 97.5313 512.575 97.5313H519.299C520.287 97.5313 521.107 97.8687 521.758 98.5436C522.433 99.2185 522.77 100.026 522.77 100.966V145.978C522.77 146.918 522.421 147.725 521.722 148.4C521.047 149.051 520.239 149.376 519.299 149.376H512.575C511.635 149.376 510.827 149.063 510.152 148.436C509.477 147.785 509.14 146.99 509.14 146.05ZM580.978 144.025C576.061 148.34 568.83 150.497 559.285 150.497C549.765 150.497 542.534 148.34 537.593 144.025C532.652 139.687 530.182 132.83 530.182 123.454C530.182 114.078 532.652 107.233 537.593 102.918C542.534 98.6039 549.765 96.4467 559.285 96.4467C568.83 96.4467 576.061 98.6039 580.978 102.918C585.919 107.233 588.389 114.078 588.389 123.454C588.389 132.83 585.919 139.687 580.978 144.025ZM571.108 110.547C568.673 107.654 564.733 106.208 559.285 106.208C553.862 106.208 549.922 107.654 547.463 110.547C545.029 113.439 543.812 117.753 543.812 123.49C543.812 129.202 545.029 133.504 547.463 136.397C549.922 139.265 553.862 140.699 559.285 140.699C564.733 140.699 568.673 139.265 571.108 136.397C573.542 133.504 574.759 129.202 574.759 123.49C574.759 117.753 573.542 113.439 571.108 110.547Z" fill="black"/>
<defs>
<linearGradient id="paint0_linear_329_2" x1="-38.5269" y1="19.9606" x2="165.951" y2="42.9779" gradientUnits="userSpaceOnUse">
<stop stop-color="#0377FF"/>
<stop offset="1" stop-color="#003B81"/>
</linearGradient>
<linearGradient id="paint1_linear_329_2" x1="154.215" y1="57.7713" x2="13.3778" y2="267.844" gradientUnits="userSpaceOnUse">
<stop stop-color="#1FC9FF"/>
<stop offset="1" stop-color="#6EDCFF"/>
</linearGradient>
</defs>
</svg>
